<mxfile host="app.diagrams.net" modified="2024-02-29T04:48:10.614Z" agent="Mozilla/5.0 (Macintosh; Intel Mac OS X 10_15_7) AppleWebKit/605.1.15 (KHTML, like Gecko) Version/16.4 Safari/605.1.15" etag="dzFMa7dMRgBDFnN9KHNU" version="23.1.8" type="github">
  <diagram name="Page-1" id="N_4NWSx4PDSUiFLjOK5d">
    <mxGraphModel dx="1434" dy="804" grid="1" gridSize="10" guides="1" tooltips="1" connect="1" arrows="1" fold="1" page="1" pageScale="1" pageWidth="827" pageHeight="1169" math="0" shadow="0">
      <root>
        <mxCell id="0" />
        <mxCell id="1" parent="0" />
        <mxCell id="zbF3CzR-IgTavKdsmXYZ-1" value="max=[55]" style="rounded=0;whiteSpace=wrap;html=1;" vertex="1" parent="1">
          <mxGeometry x="240" y="170" width="120" height="40" as="geometry" />
        </mxCell>
        <mxCell id="zbF3CzR-IgTavKdsmXYZ-3" value="User parameters" style="rounded=0;whiteSpace=wrap;html=1;fillColor=#fff2cc;strokeColor=#d6b656;" vertex="1" parent="1">
          <mxGeometry x="240" y="80" width="120" height="40" as="geometry" />
        </mxCell>
        <mxCell id="zbF3CzR-IgTavKdsmXYZ-26" style="edgeStyle=orthogonalEdgeStyle;rounded=0;orthogonalLoop=1;jettySize=auto;html=1;exitX=0.5;exitY=1;exitDx=0;exitDy=0;" edge="1" parent="1" source="zbF3CzR-IgTavKdsmXYZ-7" target="zbF3CzR-IgTavKdsmXYZ-15">
          <mxGeometry relative="1" as="geometry" />
        </mxCell>
        <mxCell id="zbF3CzR-IgTavKdsmXYZ-7" value="Selecting options" style="swimlane;fontStyle=0;childLayout=stackLayout;horizontal=1;startSize=30;horizontalStack=0;resizeParent=1;resizeParentMax=0;resizeLast=0;collapsible=1;marginBottom=0;whiteSpace=wrap;html=1;" vertex="1" parent="1">
          <mxGeometry x="240" y="280" width="120" height="150" as="geometry">
            <mxRectangle x="330" y="150" width="60" height="30" as="alternateBounds" />
          </mxGeometry>
        </mxCell>
        <mxCell id="zbF3CzR-IgTavKdsmXYZ-8" value="Lowercase=[True]" style="text;align=left;verticalAlign=middle;spacingLeft=4;spacingRight=4;overflow=hidden;points=[[0,0.5],[1,0.5]];portConstraint=eastwest;rotatable=0;whiteSpace=wrap;html=1;fillColor=#f5f5f5;fontColor=#333333;strokeColor=#666666;" vertex="1" parent="zbF3CzR-IgTavKdsmXYZ-7">
          <mxGeometry y="30" width="120" height="30" as="geometry" />
        </mxCell>
        <mxCell id="zbF3CzR-IgTavKdsmXYZ-9" value="Uppercase=[True]" style="text;strokeColor=#666666;fillColor=#f5f5f5;align=left;verticalAlign=middle;spacingLeft=4;spacingRight=4;overflow=hidden;points=[[0,0.5],[1,0.5]];portConstraint=eastwest;rotatable=0;whiteSpace=wrap;html=1;fontColor=#333333;" vertex="1" parent="zbF3CzR-IgTavKdsmXYZ-7">
          <mxGeometry y="60" width="120" height="30" as="geometry" />
        </mxCell>
        <mxCell id="zbF3CzR-IgTavKdsmXYZ-11" value="Numbers=[True]" style="text;strokeColor=#666666;fillColor=#f5f5f5;align=left;verticalAlign=middle;spacingLeft=4;spacingRight=4;overflow=hidden;points=[[0,0.5],[1,0.5]];portConstraint=eastwest;rotatable=0;whiteSpace=wrap;html=1;fontColor=#333333;" vertex="1" parent="zbF3CzR-IgTavKdsmXYZ-7">
          <mxGeometry y="90" width="120" height="30" as="geometry" />
        </mxCell>
        <mxCell id="zbF3CzR-IgTavKdsmXYZ-10" value="Symbols=[True]" style="text;align=left;verticalAlign=middle;spacingLeft=4;spacingRight=4;overflow=hidden;points=[[0,0.5],[1,0.5]];portConstraint=eastwest;rotatable=0;whiteSpace=wrap;html=1;fillColor=#f5f5f5;fontColor=#333333;strokeColor=#666666;" vertex="1" parent="zbF3CzR-IgTavKdsmXYZ-7">
          <mxGeometry y="120" width="120" height="30" as="geometry" />
        </mxCell>
        <mxCell id="zbF3CzR-IgTavKdsmXYZ-12" value="&lt;font style=&quot;font-size: 9px;&quot;&gt;(Entering options)&lt;/font&gt;" style="text;html=1;align=center;verticalAlign=middle;whiteSpace=wrap;rounded=0;" vertex="1" parent="1">
          <mxGeometry x="240" y="190" width="120" height="30" as="geometry" />
        </mxCell>
        <mxCell id="zbF3CzR-IgTavKdsmXYZ-13" value="" style="endArrow=classic;html=1;rounded=0;entryX=0.5;entryY=0;entryDx=0;entryDy=0;exitX=0.5;exitY=1;exitDx=0;exitDy=0;strokeColor=default;align=center;verticalAlign=middle;fontFamily=Helvetica;fontSize=11;fontColor=default;labelBackgroundColor=default;" edge="1" parent="1" source="zbF3CzR-IgTavKdsmXYZ-3" target="zbF3CzR-IgTavKdsmXYZ-1">
          <mxGeometry width="50" height="50" relative="1" as="geometry">
            <mxPoint x="290" y="120" as="sourcePoint" />
            <mxPoint x="340" y="70" as="targetPoint" />
          </mxGeometry>
        </mxCell>
        <mxCell id="zbF3CzR-IgTavKdsmXYZ-19" style="edgeStyle=orthogonalEdgeStyle;rounded=0;orthogonalLoop=1;jettySize=auto;html=1;entryX=0.5;entryY=0;entryDx=0;entryDy=0;" edge="1" parent="1" source="zbF3CzR-IgTavKdsmXYZ-15" target="zbF3CzR-IgTavKdsmXYZ-18">
          <mxGeometry relative="1" as="geometry" />
        </mxCell>
        <mxCell id="zbF3CzR-IgTavKdsmXYZ-29" style="edgeStyle=orthogonalEdgeStyle;rounded=0;orthogonalLoop=1;jettySize=auto;html=1;exitX=1;exitY=0.5;exitDx=0;exitDy=0;entryX=0.5;entryY=0;entryDx=0;entryDy=0;" edge="1" parent="1" source="zbF3CzR-IgTavKdsmXYZ-15" target="zbF3CzR-IgTavKdsmXYZ-28">
          <mxGeometry relative="1" as="geometry" />
        </mxCell>
        <mxCell id="zbF3CzR-IgTavKdsmXYZ-15" value="Did user change &lt;br&gt;default settings?" style="rhombus;whiteSpace=wrap;html=1;" vertex="1" parent="1">
          <mxGeometry x="235" y="480" width="130" height="130" as="geometry" />
        </mxCell>
        <mxCell id="zbF3CzR-IgTavKdsmXYZ-18" value="Choose random 55 char from&lt;br&gt;&lt;b&gt;all_available_characters &lt;/b&gt;and &lt;br&gt;use all options" style="rounded=0;whiteSpace=wrap;html=1;" vertex="1" parent="1">
          <mxGeometry x="70" y="610" width="160" height="80" as="geometry" />
        </mxCell>
        <mxCell id="zbF3CzR-IgTavKdsmXYZ-21" value="&lt;font style=&quot;font-size: 15px;&quot;&gt;No&lt;/font&gt;" style="text;html=1;align=center;verticalAlign=middle;whiteSpace=wrap;rounded=0;" vertex="1" parent="1">
          <mxGeometry x="160" y="515" width="60" height="30" as="geometry" />
        </mxCell>
        <mxCell id="zbF3CzR-IgTavKdsmXYZ-25" value="" style="endArrow=classic;html=1;rounded=0;entryX=0.5;entryY=0;entryDx=0;entryDy=0;exitX=0.5;exitY=1;exitDx=0;exitDy=0;strokeColor=default;align=center;verticalAlign=middle;fontFamily=Helvetica;fontSize=11;fontColor=default;labelBackgroundColor=default;" edge="1" parent="1" target="zbF3CzR-IgTavKdsmXYZ-7">
          <mxGeometry width="50" height="50" relative="1" as="geometry">
            <mxPoint x="299.5" y="210" as="sourcePoint" />
            <mxPoint x="299.5" y="260" as="targetPoint" />
          </mxGeometry>
        </mxCell>
        <mxCell id="zbF3CzR-IgTavKdsmXYZ-28" value="Use entered and selected parameters&amp;nbsp;" style="rounded=0;whiteSpace=wrap;html=1;" vertex="1" parent="1">
          <mxGeometry x="370" y="610" width="160" height="80" as="geometry" />
        </mxCell>
        <mxCell id="zbF3CzR-IgTavKdsmXYZ-30" value="&lt;font style=&quot;font-size: 15px;&quot;&gt;Yes&lt;/font&gt;" style="text;html=1;align=center;verticalAlign=middle;whiteSpace=wrap;rounded=0;" vertex="1" parent="1">
          <mxGeometry x="370" y="515" width="60" height="30" as="geometry" />
        </mxCell>
      </root>
    </mxGraphModel>
  </diagram>
</mxfile>
